<?xml version="1.0" encoding="UTF-8" standalone="no"?>
<svg
   viewBox="0 0 114.23438 111.61328"
   height="111.61327pt"
   width="114.23438pt"
   version="1.1"
   id="svg27"
   sodipodi:docname="logoNB.svg"
   inkscape:version="1.4 (86a8ad7, 2024-10-11)"
   xmlns:inkscape="http://www.inkscape.org/namespaces/inkscape"
   xmlns:sodipodi="http://sodipodi.sourceforge.net/DTD/sodipodi-0.dtd"
   xmlns="http://www.w3.org/2000/svg"
   xmlns:svg="http://www.w3.org/2000/svg">
  <defs
     id="defs27" />
  <sodipodi:namedview
     id="namedview27"
     pagecolor="#ffffff"
     bordercolor="#000000"
     borderopacity="0.25"
     inkscape:showpageshadow="2"
     inkscape:pageopacity="0.0"
     inkscape:pagecheckerboard="0"
     inkscape:deskcolor="#d1d1d1"
     inkscape:document-units="pt"
     inkscape:zoom="1.4892252"
     inkscape:cx="373.34851"
     inkscape:cy="105.08821"
     inkscape:window-width="1920"
     inkscape:window-height="991"
     inkscape:window-x="-9"
     inkscape:window-y="-9"
     inkscape:window-maximized="1"
     inkscape:current-layer="g2" />
  <g
     style="fill:#8a1438"
     id="g2"
     transform="translate(-29.613281,-27.089844)">
    <path
       d="m 122.10547,50.730469 h 17.97265 v 1.628906 h -5.58203 v 33.394531 c 0,9.605469 -1.6875,19.828124 -5.79297,26.468754 l -3.39062,-4.63672 c 3.37109,-7.777346 2.39453,-17.535159 2.46094,-21.832034 V 52.359375 h -5.66797 z m 0,0"
       id="path1"
       style="fill:#1a1a1a" />
    <path
       d="m 93.628906,55.03125 h 0.695313 c 1.867187,18.6875 5.734371,34.78125 18.894531,53.1875 8.1875,11.45313 19.19141,27.75 19.19141,27.75 h 11.4375 c 0,0 -16.52735,-20.91016 -22.86719,-30.38672 C 106.01172,83.214844 100.85938,65.140625 100.01953,28.332031 v -1.242187 h -9.621092 v 1.242187 c 0.304687,30.484375 -3.152344,43.761719 -7.789063,55.125 -3.199219,7.832032 -9.507812,17.839849 -17.1875,25.585939 0.0078,1.36719 0.679688,4.42578 1.269531,6.42187 5.316407,-6.91796 14.164063,-10.73437 21.929688,-10.73437 5.652344,0 10.84375,1.46094 15.484376,5.68359 1.84375,1.67969 5.03125,5.46875 10.33984,14.23828 -5.68359,5.97657 -13.6289,9.97266 -23.093747,9.97266 -13.246094,0 -19.285157,-4.92578 -23.789063,-11.32812 -4.113281,-5.85547 -6.234375,-14.5586 -6.234375,-28.062505 v -42.875 h 5.09375 V 50.726563 H 29.613281 v 1.632812 h 5.277344 v 31.371094 c 0,17.820311 3.851563,27.746091 10.101563,36.355471 6.375,8.78125 19.660156,18.61718 44.402343,18.61718 13.070309,0 22.062499,-5.71093 27.035159,-10.73828 1.32812,2.27344 2.98828,5.15625 4.54297,8.00391 h 8.61328 c 0,0 -5.75,-8.67969 -14.33203,-21.05078 -9.12891,-13.15625 -17.921879,-14.875 -26.621097,-14.875 -4.609375,0 -10.046875,2.14453 -13.183594,4.36719 L 75.1875,104.14844 c 5.71875,-6.539065 9.386719,-14.332034 11.675781,-20.167971 2.414063,-6.15625 6.3125,-19.101563 6.765625,-28.949219"
       id="path2"
       style="fill:#28220b" />
  </g>
</svg>
